<svg height="512pt" viewBox="0 0 512 512.00016" width="512pt" xmlns="http://www.w3.org/2000/svg"><path d="M440 409.418v17.996c0 4.258-1.695 8.348-4.734 11.324a256.954 256.954 0 0 1-36.106 29.508c-2.465 1.668-5.68 1.758-8.203.188C351.773 444.074 305.531 430 256 430c-49.078 0-94.926 13.82-133.879 37.77a9.5 9.5 0 0 1-10.336-.243 256.984 256.984 0 0 1-35.312-29.05C72.359 434.43 70 428.93 70 423.157v-15.91C70 386.675 53.324 370 32.754 370a9.6 9.6 0 0 1-8.691-5.516C8.629 331.547 0 294.781 0 256 0 114.715 114.457.16 255.707 0 397.051-.16 512.34 115.281 512 256.629c-.094 38.617-8.742 75.219-24.145 108.02a9.32 9.32 0 0 1-8.437 5.351C457.648 370 440 387.648 440 409.418zm0 0" fill="#fded32"/><path d="M296 270c0 22.09-17.91 40-40 40s-40-17.91-40-40 17.91-40 40-40 40 17.91 40 40zm0 0" fill="#0995a3"/><path d="M350 20c0 11.047-8.953 20-20 20-6.59 0-12.418-3.203-16.063-8.117C283.06 39.164 260 66.93 260 100h-20c0-43.371 30.84-79.676 71.742-88.137C314.86 4.88 321.855 0 330 0c11.047 0 20 8.953 20 20zm0 0" fill="#013f69"/><path d="M333 5c5.523 0 10 4.477 10 10s-4.477 10-10 10-10-4.477-10-10 4.477-10 10-10zm0 0" fill="#015081"/><path d="M350 275.332H160c-55.227 0-100-44.77-100-100v-10c0-55.227 44.773-100 100-100h190c55.227 0 100 44.773 100 100v10c0 55.23-44.773 100-100 100zm137.988 89.016c-13.074 27.945-31.043 53.132-52.808 74.468l-33.89-33.886c-.356-.356-.696-.723-1.036-1.086V450c0 6.39-.606 12.637-1.75 18.691C357.77 496.04 308.75 512 256 512c-53.617 0-103.375-16.492-144.5-44.668A100.6 100.6 0 0 1 110 450v-44.36l-33.18 33.176c-21.765-21.336-39.734-46.523-52.808-74.468l23.058-23.059c9.012-9.008 21.25-12.812 32.993-11.426 1.136-21.074 18.582-37.812 39.937-37.812 16.207 0 30.148 9.64 36.434 23.496C171.922 305.703 190.293 300 210 300h90.258c23.101 0 44.37 7.84 61.3 20.996 4.801-16.715 20.188-28.945 38.442-28.945 21.309 0 38.719 16.66 39.926 37.668 9.117.746 18.027 4.593 25.004 11.57zm0 0" fill="#0cabb9"/><path d="M199 275.332c-55.23 0-100-44.77-100-100v-10c0-55.227 44.77-100 100-100h151c55.23 0 100 44.773 100 100v10c0 55.23-44.77 100-100 100zm-79 96.719c-14.684 0-27.516-7.922-34.473-19.715a39.764 39.764 0 0 0-17.242 10.168l-29.308 29.308a257.41 257.41 0 0 0 37.843 47.004l33.89-33.886c8.997-8.996 12.81-21.211 11.442-32.942-.715.04-1.43.063-2.152.063zm344.93-30.762a39.836 39.836 0 0 0-25.004-11.578c.047.773.074 1.55.074 2.34 0 17.379-11.09 32.168-26.578 37.683a39.768 39.768 0 0 0 9.082 13.98l32.86 32.864a256.029 256.029 0 0 0 32.624-52.23zM360 332.051a40.1 40.1 0 0 1 1.691-11.524C344.863 307.652 323.824 300 301 300h-51c-55.23 0-100 44.77-100 100v50c0 15.516 3.535 30.203 9.84 43.305C189.53 505.352 221.984 512 256 512c53.117 0 102.457-16.18 143.355-43.875A100.423 100.423 0 0 0 401 450v-50c0-9.746-1.402-19.168-4-28.074-20.688-1.535-37-18.797-37-39.875zm0 0" fill="#2abbc7"/><path d="M342 195.332H170c-24.852 0-45-20.144-45-45 0-24.852 20.148-45 45-45h172c24.852 0 45 20.148 45 45 0 24.856-20.148 45-45 45zm0 0" fill="#013f69"/><path d="M342 195.332H195c-24.852 0-45-20.144-45-45 0-24.852 20.148-45 45-45h147c24.852 0 45 20.148 45 45 0 24.856-20.148 45-45 45zm0 0" fill="#015081"/><path d="M195 125.332c-13.809 0-25 11.195-25 25 0 13.809 11.191 25 25 25s25-11.191 25-25c0-13.805-11.191-25-25-25zm0 35c-5.523 0-10-4.477-10-10s4.477-10 10-10 10 4.477 10 10-4.477 10-10 10zm120-35c-13.809 0-25 11.195-25 25 0 13.809 11.191 25 25 25s25-11.191 25-25c0-13.805-11.191-25-25-25zm0 35c-5.523 0-10-4.477-10-10s4.477-10 10-10 10 4.477 10 10-4.477 10-10 10zM140 332.05c0 11.044-8.953 20-20 20s-20-8.956-20-20c0-11.046 8.953-20 20-20s20 8.954 20 20zm260-20c-11.047 0-20 8.954-20 20 0 11.044 8.953 20 20 20s20-8.956 20-20c0-11.046-8.953-20-20-20zm0 0" fill="#84deea"/><path d="M140 332.05c0 8.391-5.172 15.563-12.5 18.532a20.1 20.1 0 0 1-8.895-7.102c-.753-1.082.04-2.52 1.364-2.515H120a8.922 8.922 0 0 0 8.883-9.738c-.336-3.727-3.074-6.915-6.703-7.825a8.933 8.933 0 0 0-2.235-.27c-1.312.009-2.09-1.437-1.34-2.51a20.072 20.072 0 0 1 8.899-7.106c7.324 2.968 12.496 10.14 12.496 18.535zm267.5-18.534a20.04 20.04 0 0 0-8.895 7.105c-.753 1.074.028 2.52 1.336 2.512a9.148 9.148 0 0 1 2.239.27c3.629.91 6.367 4.097 6.699 7.824a8.917 8.917 0 0 1-8.879 9.738h-.035c-1.32-.004-2.117 1.433-1.36 2.515a20.005 20.005 0 0 0 8.895 7.102c7.324-2.969 12.5-10.14 12.5-18.531s-5.172-15.567-12.5-18.535zm0 0" fill="#d3f1f5"/><path d="M330 330c5.523 0 10 4.477 10 10s-4.477 10-10 10-10-4.477-10-10 4.477-10 10-10zm-40 10c0 5.523 4.477 10 10 10s10-4.477 10-10-4.477-10-10-10-10 4.477-10 10zm0 0" fill="#0995a3"/><path d="M270 330c5.523 0 10 4.477 10 10s-4.477 10-10 10-10-4.477-10-10 4.477-10 10-10zm0 0" fill="#84deea"/></svg>