<svg xmlns="http://www.w3.org/2000/svg" viewBox="0 0 49.655 49.655"><path d="M49.655 26.826c0 5.551-2.193 10.511-5.636 13.816 1.959-3.321 3.103-8.283 3.103-15.725a22.38 22.38 0 0 0-3.821-12.538c3.849 3.282 6.354 8.522 6.354 14.447zM6.354 12.378C2.505 15.662 0 20.901 0 26.825c0 5.679 2.297 10.737 5.878 14.039-2.096-3.32-3.345-8.34-3.345-15.948 0-4.642 1.41-8.958 3.821-12.538zm34.178-1.891c-3.894-4.286-9.479-6.991-15.706-6.991S13.014 6.201 9.12 10.487c-3.46 3.809-5.589 8.862-5.589 14.428.002 10.162 2.163 15.498 5.693 18.305.642.511 1.326.943 2.054 1.299-.283-.23-.554-.474-.814-.73-2.133-2.093-3.47-4.986-3.495-8.172-.133-3.289-.195-5.494-.268-8.047-.038-1.347-.079-2.784-.135-4.549 0-6.649 6.922-11.617 13.111-11.617h10.299c7.504 0 13.111 6.133 13.111 11.649-.055 1.73-.096 3.165-.134 4.51-.073 2.555-.135 4.762-.267 8.022-.026 3.205-1.366 6.109-3.504 8.207a11.93 11.93 0 0 1-.884.782 11.175 11.175 0 0 0 2.252-1.421c3.46-2.826 5.571-8.16 5.571-18.237 0-5.566-2.129-10.621-5.589-14.429zm-3.952 34.08a10.68 10.68 0 0 1-5.607 1.592H18.682c-2.055 0-3.973-.588-5.608-1.592-3.031-1.861-5.075-5.175-5.106-8.99-.203-5.031-.242-7.562-.401-12.556 0-5.864 6.248-10.617 12.111-10.617h10.299c5.864 0 12.111 4.753 12.111 10.617-.159 4.994-.199 7.525-.402 12.556-.031 3.815-2.075 7.129-5.106 8.99zM20.279 27.875a3.985 3.985 0 0 0-1.9-3.391 3.965 3.965 0 0 0-2.1-.609 4 4 0 0 0 0 8c.907 0 1.734-.314 2.405-.823a3.979 3.979 0 0 0 1.595-3.177zm17.096 0a4 4 0 0 0-4-4c-.773 0-1.488.229-2.1.609a3.985 3.985 0 0 0-1.9 3.391 3.98 3.98 0 0 0 1.595 3.177 3.963 3.963 0 0 0 2.405.823 4 4 0 0 0 4-4z" fill="#1d1c1a"/></svg>