<svg id="Слой_1" data-name="Слой 1" xmlns="http://www.w3.org/2000/svg" viewBox="0 0 226.46 125.68"><defs><style>.cls-1,.cls-4{fill:#f6cd3a}.cls-2{fill:none}.cls-2,.cls-3,.cls-4,.cls-5{stroke:#000;stroke-linecap:round;stroke-linejoin:round;stroke-width:4px}.cls-5,.cls-7{fill:#fff}.cls-6{fill:#f2bf00}</style></defs><path class="cls-1" d="M199.92 40.01h-61.64l4.67-14.87h61.64l-4.67 14.87z"/><path class="cls-2" d="M199.92 40.01h-61.64l4.67-14.87h61.64l-4.67 14.87z"/><path class="cls-1" d="M85.28 60.48H23.64l4.67-14.86h61.64l-4.67 14.86z"/><path class="cls-2" d="M85.28 60.48H23.64l4.67-14.86h61.64l-4.67 14.86z"/><path class="cls-1" d="M195.15 100.83H21.86l6.03-13.5h173.29l-6.03 13.5z"/><path class="cls-2" d="M195.15 100.83H21.86l6.03-13.5h173.29l-6.03 13.5z"/><path class="cls-3" d="M32.66 95.2l1.66-.2a1.23 1.23 0 0 0 .19.62.7.7 0 0 0 .61.24c.59 0 .89-.27.89-.81 0-.24-.06-.4-.19-.47a.79.79 0 0 0-.45-.11H35l.18-1.09h.32a.61.61 0 0 0 .51-.21.79.79 0 0 0 .17-.51c0-.39-.24-.58-.73-.58a1.06 1.06 0 0 0-.58.15 1.08 1.08 0 0 0-.38.65l-1.4-.25a2.32 2.32 0 0 1 2.59-1.9 2.83 2.83 0 0 1 1.74.45 1.42 1.42 0 0 1 .58 1.2 1.49 1.49 0 0 1-1.13 1.41 1.31 1.31 0 0 1 1 1.29 2 2 0 0 1-.7 1.56 3 3 0 0 1-2.11.62 2.69 2.69 0 0 1-1.83-.49 2.12 2.12 0 0 1-.57-1.57zm15.89-4.29l-1 6.2h-1.78l.56-3.31c.05-.34.13-.69.22-1.06s.12-.53.15-.68c0 .09-.09.23-.16.42-.15.4-.29.74-.41 1l-1.61 3.61h-1.11L43 93.5c0-.32-.07-.66-.08-1a4.81 4.81 0 0 0 0-.5c-.08.86-.18 1.6-.28 2.22l-.48 2.91h-1.47l1-6.2h2.49l.33 2.74c0 .22.06.38.08.48a3.73 3.73 0 0 1 .18-.48L46 90.91zm4.85 4.77l-.24 1.43h-4.57l1-6.2h4.46l-.23 1.35H51.2l-.16 1h2.23l-.22 1.34h-2.24l-.18 1.1zm3.91-3.36l-.8 4.8H54.7l.81-4.8h-1.33l.24-1.42h4.49l-.23 1.42zm4.09 3.52h-1.66l-.58 1.27h-1.54l2.87-6.2h1.95l1 6.2h-1.87zm-.11-1.28l-.29-1.8-.82 1.8zm2.3 2.55l2.78-6.2h1.8l1.21 6.2h-1.89l-.69-4c0 .12-.24.6-.59 1.42l-1.11 2.58z"/><path class="cls-3" d="M71.29 95.2l-1.74-4.29h2l.76 2.46 1.34-2.46h1.72l-2.47 4.35a6 6 0 0 1-.83 1.24 3.15 3.15 0 0 1-.69.42 3 3 0 0 1-1.19.19h-.9l.22-1.36h.59a2.33 2.33 0 0 0 .7-.09 1 1 0 0 0 .49-.46zm5.52 1.91l1-6.2h2.56a4.55 4.55 0 0 1 1.15.12 1.48 1.48 0 0 1 .69 2.38 1.82 1.82 0 0 1-1 .54 1.33 1.33 0 0 1 1 1.34 1.85 1.85 0 0 1-.49 1.27 2.08 2.08 0 0 1-1.63.55zm2-1.37h.93a.78.78 0 0 0 .59-.19.57.57 0 0 0 .17-.39.55.55 0 0 0-.18-.43.83.83 0 0 0-.54-.16H79zm.41-2.47H80c.57 0 .85-.18.85-.56s-.22-.5-.67-.5h-.71zM89 94.61h-1.66l-.42 2.5h-1.8l1-6.2H88l-.38 2.28h1.6l.39-2.28h1.8l-1 6.2h-1.8zm5.71 1.23h-1.66l-.58 1.27h-1.54l2.87-6.2h2l1 6.2h-1.92zm-.11-1.28l-.25-1.8-.82 1.8zm5.75-2.24l-.81 4.8h-1.8l.81-4.8h-1.33l.24-1.42H102l-.23 1.42z"/><path class="cls-3" d="M103.65 95.2l-1.75-4.29h2l.77 2.46 1.33-2.46h1.71l-2.42 4.35a5.52 5.52 0 0 1-.84 1.24 2.56 2.56 0 0 1-1.87.61h-.91l.23-1.36h.59a2.38 2.38 0 0 0 .7-.09 1 1 0 0 0 .46-.46zm5.35-.37l-.38 2.28h-1.81l1-6.2h2.05a6.52 6.52 0 0 1 1 .06 1.89 1.89 0 0 1 .68.29 1.7 1.7 0 0 1 .56.63 1.74 1.74 0 0 1 .21.84 2 2 0 0 1-2.2 2.1zm.22-1.33h.43c.65 0 1-.22 1-.66s-.28-.59-.82-.59h-.38zm6.12 2.34h-1.66l-.58 1.27h-1.54l2.87-6.2h1.95l1 6.2h-1.83zm-.11-1.28l-.25-1.8-.82 1.8zm2.3 2.55l2.78-6.2h1.8l1.21 6.2h-1.89l-.69-4c0 .12-.24.6-.59 1.42L119 97.11zm5.93 0l1-6.2h1.76l-.37 2.19h.89a3.78 3.78 0 0 1 1.36.19 1.3 1.3 0 0 1 .66.58 1.91 1.91 0 0 1 .22.95 2.4 2.4 0 0 1-.57 1.61 2.66 2.66 0 0 1-2.09.68zm2-1.36h.9c.54 0 .8-.26.8-.77s-.23-.58-.69-.58h-.79zm7.69-1.14h-1.61l-.41 2.5h-1.8l1-6.2h1.8l-.38 2.28h1.61l.38-2.28h1.8l-1 6.2h-1.8zm4.24.59l-1.74-4.29h1.95l.77 2.46 1.34-2.46h1.72L139 95.26a5.52 5.52 0 0 1-.84 1.24 2.84 2.84 0 0 1-.68.42 3 3 0 0 1-1.19.19h-.91l.23-1.36h.59a2.33 2.33 0 0 0 .7-.09 1 1 0 0 0 .49-.46zm5.52 1.91l1-6.2h2.56a4.55 4.55 0 0 1 1.15.12 1.39 1.39 0 0 1 .74.51 1.45 1.45 0 0 1 .31.91 1.38 1.38 0 0 1-.36 1 1.82 1.82 0 0 1-1 .54 1.33 1.33 0 0 1 1 1.34 1.85 1.85 0 0 1-.49 1.27 2.08 2.08 0 0 1-1.63.55zm2-1.37h.92a.8.8 0 0 0 .6-.19.56.56 0 0 0 .16-.39.55.55 0 0 0-.18-.43.78.78 0 0 0-.53-.16h-.78zm.41-2.47h.71c.57 0 .85-.18.85-.56s-.22-.5-.67-.5h-.71zm8.38 2.41l-.24 1.43h-4.57l1-6.2h4.46l-.23 1.35h-2.62l-.16 1h2.23l-.23 1.34h-2.23l-.18 1.1zm-.15 1.43l2.79-6.2h1.8l1.21 6.2h-1.9l-.68-4c0 .12-.24.6-.59 1.42l-1.11 2.59zm7.78-.55l-.09.55h-1.76l1-6.2h1.76l-.41 2.41c-.06.37-.16.84-.3 1.4.36-.59.7-1.1 1-1.52l1.28-1.71.1-.58h1.76l-1 6.2h-1.76l.4-2.38c.07-.4.17-.88.3-1.42a17.63 17.63 0 0 1-1 1.56zm7.67.55l.38-2.25a2.66 2.66 0 0 1-1.49.48 1.93 1.93 0 0 1-1.17-.33 1.21 1.21 0 0 1-.46-1.06 7.17 7.17 0 0 1 .11-.93l.35-2.11h1.8l-.39 2.09a4.93 4.93 0 0 0-.06.57c0 .24.18.36.56.36a2.55 2.55 0 0 0 .9-.17l.48-2.87h1.8l-1 6.2zm4.7-.55l-.09.55h-1.76l1-6.2h1.76l-.41 2.41c-.06.37-.16.84-.31 1.4.37-.59.71-1.1 1-1.52l1.28-1.71.1-.58h1.76l-1.03 6.2h-1.75l.4-2.38c.06-.4.17-.88.3-1.42a17.63 17.63 0 0 1-1 1.56zm8.3-1.95h-1.61l-.41 2.5h-1.8l1-6.2H181l-.38 2.28h1.61l.38-2.28h1.81l-1 6.2h-1.8zm4.19.59l-1.74-4.29h2l.77 2.46 1.34-2.46h1.72l-2.43 4.35a5.52 5.52 0 0 1-.85 1.24 2.84 2.84 0 0 1-.68.42 3 3 0 0 1-1.19.19h-.91l.23-1.36h.55a2.33 2.33 0 0 0 .7-.09 1 1 0 0 0 .49-.46z"/><path class="cls-4" d="M25.33 40l2.47-14.8h6.12a10.31 10.31 0 0 1 2.73.3 3.48 3.48 0 0 1 2.5 3.38 3.31 3.31 0 0 1-.85 2.3 4.25 4.25 0 0 1-2.3 1.28 3.22 3.22 0 0 1 2.44 3.22 4.36 4.36 0 0 1-1.17 3A5 5 0 0 1 33.4 40zm4.83-3.28h2.22a1.87 1.87 0 0 0 1.42-.43 1.4 1.4 0 0 0 .39-.95 1.31 1.31 0 0 0-.43-1 1.85 1.85 0 0 0-1.28-.34h-1.85zm1-5.88h1.7c1.35 0 2-.45 2-1.34s-.54-1.18-1.61-1.18h-1.68zM44 38.69L43.79 40H39.6l2.47-14.8h4.2L45.3 31c-.15.88-.39 2-.73 3.33q1.32-2.11 2.43-3.62l3-4.08.24-1.4h4.2L52 40h-4.2l1-5.68c.15-1 .4-2.09.73-3.39Q48.1 33.25 47 34.67zm19.87-4.41l4 .51a8.48 8.48 0 0 1-2.38 4 6.09 6.09 0 0 1-4.26 1.55 5.57 5.57 0 0 1-4.43-1.89 7.17 7.17 0 0 1-1.64-4.87 9.63 9.63 0 0 1 2-6.06 6.64 6.64 0 0 1 5.57-2.64 5.51 5.51 0 0 1 5.81 5.77l-4.17.3a4.25 4.25 0 0 0-.43-2 1.44 1.44 0 0 0-1.35-.67c-1.1 0-1.85.81-2.25 2.44a17.06 17.06 0 0 0-.6 3.84c0 1.51.59 2.27 1.78 2.27a1.86 1.86 0 0 0 1.42-.58 4.9 4.9 0 0 0 .93-1.97zm12.84-5.69L74.79 40h-4.3l1.92-11.44h-3.16l.57-3.41h10.72L80 28.59zM86.47 37h-4l-1.38 3h-3.63l6.85-14.8H89L91.25 40h-4.37zm-.26-3.06l-.59-4.28-2 4.28zM92.47 40l2.47-14.8h6.11a10.34 10.34 0 0 1 2.74.3 3.48 3.48 0 0 1 2.5 3.38 3.27 3.27 0 0 1-.86 2.3 4.22 4.22 0 0 1-2.29 1.28 3.22 3.22 0 0 1 2.44 3.22 4.36 4.36 0 0 1-1.17 3 5 5 0 0 1-3.88 1.32zm4.83-3.28h2.21a1.85 1.85 0 0 0 1.42-.43 1.37 1.37 0 0 0 .4-.95 1.31 1.31 0 0 0-.43-1 1.85 1.85 0 0 0-1.28-.34h-1.86zm1-5.88h1.7c1.35 0 2-.45 2-1.34s-.54-1.18-1.61-1.18H98.7zm18.62-.03l2.83 9.2h-4.37l-1.67-6.12-2.25 2.51-.6 3.61h-4.12l2.47-14.81h4.12L112.2 32a6.35 6.35 0 0 1 1.07-1.67c.47-.55 1.23-1.47 2.29-2.75l2.11-2.38h4.23zM128.84 37h-4l-1.39 3h-3.66l6.85-14.81h4.64L133.62 40h-4.37zm-.27-3.06l-.57-4.3-2 4.28z"/><path class="cls-5" d="M106.67 58l-.51 3a5.9 5.9 0 0 1-1.42.2 4.4 4.4 0 0 1-3.13-1.32 6.1 6.1 0 0 1-4 1.36 6.41 6.41 0 0 1-4.1-1.24 4 4 0 0 1-1.6-3.29 4.74 4.74 0 0 1 .73-2.46A6.56 6.56 0 0 1 96 52.1a5 5 0 0 1-1-2.64 3.47 3.47 0 0 1 1.22-2.76 4.87 4.87 0 0 1 3.28-1.05 5 5 0 0 1 3.27 1 3.13 3.13 0 0 1 1.26 2.54q0 2.46-3.12 3.89l1.45 2a7.31 7.31 0 0 0 1.19-1.83q.33-.65.48-.9l3.42.71a12 12 0 0 1-1.22 2.25 7.94 7.94 0 0 1-1.91 2.17 1.63 1.63 0 0 0 1.33.55zm-9-3.47a1.77 1.77 0 0 0-1.31 1.76 1.67 1.67 0 0 0 .49 1.26 1.86 1.86 0 0 0 1.35.48 2.49 2.49 0 0 0 1.56-.54zm1.71-3.67c1-.32 1.42-.83 1.42-1.54a1.08 1.08 0 0 0-.29-.75 1 1 0 0 0-.74-.31 1.16 1.16 0 0 0-.75.26 1 1 0 0 0-.31.79 2.38 2.38 0 0 0 .7 1.57zm19.31 4.58l-.91 5.43h-4.3l2.52-14.8h4.9a14.78 14.78 0 0 1 2.5.15 4.47 4.47 0 0 1 1.63.7 4.05 4.05 0 0 1 1.34 1.5 4.33 4.33 0 0 1 .49 2 4.84 4.84 0 0 1-5.23 5zm.53-3.17h1c1.55 0 2.33-.52 2.33-1.57s-.65-1.42-2-1.42h-.9zm14.56 8.98a6.58 6.58 0 0 1-4.55-1.72 6.22 6.22 0 0 1-1.93-4.92 9.56 9.56 0 0 1 2.16-6.32 7 7 0 0 1 5.63-2.6 6.15 6.15 0 0 1 4.58 1.82 6.48 6.48 0 0 1 1.79 4.75 9.79 9.79 0 0 1-2.12 6.37 6.81 6.81 0 0 1-5.56 2.62zm0-3.45a1.92 1.92 0 0 0 1.75-1 8.37 8.37 0 0 0 .97-2.8 16.23 16.23 0 0 0 .35-2.54 2.49 2.49 0 0 0-.52-1.72 1.81 1.81 0 0 0-1.4-.59c-1.1 0-1.88.77-2.33 2.31a14.76 14.76 0 0 0-.67 4.09c0 1.5.63 2.25 1.88 2.25zm8.22 3.07l2.48-14.8h10.67l-.51 3h-6.48l-.46 2.77h2a10.55 10.55 0 0 1 3 .35 3.51 3.51 0 0 1 1.85 1.25 3.65 3.65 0 0 1 .7 2.29 5.78 5.78 0 0 1-.7 2.73 3.77 3.77 0 0 1-2.22 1.85 9 9 0 0 1-2.94.52zm4.73-3.23h2.31a1.65 1.65 0 0 0 1.3-.45 1.53 1.53 0 0 0 .41-1c0-.86-.67-1.28-2-1.28h-1.56zm16.54 3.61a6.63 6.63 0 0 1-4.56-1.72 6.25 6.25 0 0 1-1.93-4.92 9.56 9.56 0 0 1 2.16-6.32 7 7 0 0 1 5.64-2.6 6.17 6.17 0 0 1 4.58 1.82 6.48 6.48 0 0 1 1.84 4.75 9.74 9.74 0 0 1-2.13 6.37 6.81 6.81 0 0 1-5.6 2.62zm0-3.45a1.92 1.92 0 0 0 1.75-1A8.6 8.6 0 0 0 166 54a17.6 17.6 0 0 0 .35-2.54 2.49 2.49 0 0 0-.53-1.72 1.78 1.78 0 0 0-1.39-.59c-1.11 0-1.89.77-2.33 2.31a14.81 14.81 0 0 0-.68 4.09c-.01 1.5.58 2.25 1.88 2.25zm16.06-8.35l-1.92 11.45h-4.29L175 49.45h-3.16l.57-3.4h10.72l-.56 3.4zm9.33-3.38l-2.47 14.8H182l2.48-14.8zm.09 14.8l2.47-14.8h6.12a10.25 10.25 0 0 1 2.73.3 3.43 3.43 0 0 1 1.79 1.22 3.39 3.39 0 0 1 .72 2.16 3.32 3.32 0 0 1-.86 2.3 4.31 4.31 0 0 1-2.3 1.28 3.21 3.21 0 0 1 2.44 3.22 4.41 4.41 0 0 1-1.16 3 5 5 0 0 1-3.88 1.3zm4.84-3.27h2.21a1.89 1.89 0 0 0 1.42-.43 1.4 1.4 0 0 0 .39-1 1.27 1.27 0 0 0-.43-1 1.82 1.82 0 0 0-1.27-.39h-1.86zm1-5.88h1.69c1.36 0 2-.45 2-1.34s-.54-1.19-1.61-1.19H195zM33.41 70.32l-1.92 11.44h-4.3l1.92-11.44H26l.57-3.4h10.67l-.56 3.4zm7.85 5.99l-.91 5.43h-4.3l2.48-14.8h4.89a14.92 14.92 0 0 1 2.51.15 4.33 4.33 0 0 1 1.62.7 4 4 0 0 1 1.34 1.5 4.21 4.21 0 0 1 .49 2 4.84 4.84 0 0 1-5.23 5zm.54-3.17h1c1.55 0 2.33-.52 2.33-1.58s-.65-1.41-1.95-1.41h-.9zm14.52 5.58h-4l-1.38 3h-3.63l6.85-14.8h4.64l2.3 14.8h-4.37zm-.26-3.06l-.59-4.29-1.95 4.29zm15.39.13h-3.84l-1 5.95h-4.3l2.47-14.8h4.3l-.91 5.44H72l.91-5.44h4.3l-2.47 14.8h-4.3zm15.17.21l4 .51a8.45 8.45 0 0 1-2.38 4A6.07 6.07 0 0 1 84 82.06a5.55 5.55 0 0 1-4.43-1.9 7.16 7.16 0 0 1-1.64-4.86 9.66 9.66 0 0 1 2-6.07 6.64 6.64 0 0 1 5.57-2.64 5.52 5.52 0 0 1 5.81 5.77l-4.17.31a4.32 4.32 0 0 0-.42-2 1.46 1.46 0 0 0-1.38-.67c-1.1 0-1.85.82-2.25 2.44a17.22 17.22 0 0 0-.6 3.84c0 1.52.59 2.28 1.78 2.28a1.82 1.82 0 0 0 1.42-.59 4.85 4.85 0 0 0 .93-1.97zm12.66-9.51h3.6l-.31 1.88A5.59 5.59 0 0 1 106.3 70a5.12 5.12 0 0 1 1.26 3.55 6.85 6.85 0 0 1-1.7 4.53 7.24 7.24 0 0 1-5.3 2.24l-.3 1.84h-3.61L97 80.3a5.74 5.74 0 0 1-3.7-1.59 4.88 4.88 0 0 1-1.3-3.54 6.87 6.87 0 0 1 1.74-4.64A7.17 7.17 0 0 1 99 68.32zM97.45 77.4l1-6.29A3.69 3.69 0 0 0 96 75a2.47 2.47 0 0 0 1.45 2.4zm3.58.19a3.72 3.72 0 0 0 2.54-3.85 2.46 2.46 0 0 0-1.49-2.45zm14.1 4.53a6.58 6.58 0 0 1-4.55-1.72 6.24 6.24 0 0 1-1.93-4.93 9.52 9.52 0 0 1 2.15-6.31 7 7 0 0 1 5.64-2.6 6.15 6.15 0 0 1 4.56 1.82 6.48 6.48 0 0 1 1.79 4.75 9.76 9.76 0 0 1-2.13 6.37 6.79 6.79 0 0 1-5.53 2.62zm0-3.45a1.92 1.92 0 0 0 1.75-1 8.37 8.37 0 0 0 .94-2.84 17.78 17.78 0 0 0 .35-2.54 2.52 2.52 0 0 0-.53-1.73 1.77 1.77 0 0 0-1.39-.58c-1.11 0-1.88.77-2.33 2.31a14.76 14.76 0 0 0-.67 4.09c.03 1.54.66 2.29 1.91 2.29zm13.46-2.36l-.91 5.43h-4.3l2.48-14.8h4.89a14.92 14.92 0 0 1 2.51.15 4.33 4.33 0 0 1 1.62.7 4 4 0 0 1 1.34 1.5 4.21 4.21 0 0 1 .49 2 4.84 4.84 0 0 1-5.23 5zm.54-3.17h1c1.55 0 2.33-.52 2.33-1.58s-.65-1.41-1.95-1.41h-.9zm26.32-6.2L153 81.74h-4.17l1.33-7.88c.13-.81.31-1.66.53-2.54.17-.72.29-1.26.36-1.64l-.39 1c-.35 1-.67 1.76-1 2.43l-3.83 8.61h-2.67l-1-8.61c-.09-.76-.16-1.57-.19-2.43 0-.51-.06-.91-.09-1.19-.2 2-.42 3.81-.67 5.29L140 81.74h-3.35l2.47-14.8h6l.8 6.55c.06.53.12.91.17 1.14a8.85 8.85 0 0 1 .45-1.14l2.93-6.55zM167 78.34l-.57 3.4h-10.88l2.45-14.8h10.64l-.54 3.24h-6.35l-.39 2.32h5.34l-.55 3.21h-5.32l-.44 2.63zm6.48-2.03l-.91 5.43h-4.3l2.47-14.8h4.89a14.84 14.84 0 0 1 2.51.15 4.31 4.31 0 0 1 1.63.7 4 4 0 0 1 1.33 1.5 4.22 4.22 0 0 1 .5 2 4.86 4.86 0 0 1-5.24 5zm.53-3.17h1c1.56 0 2.34-.52 2.34-1.58s-.65-1.41-2-1.41h-.9zm14.25-6.2l-2.48 14.8h-4.21l2.48-14.8zm.09 14.8l2.47-14.8h6.12a10.31 10.31 0 0 1 2.73.3 3.47 3.47 0 0 1 2.51 3.38 3.32 3.32 0 0 1-.86 2.3 4.24 4.24 0 0 1-2.3 1.27 3.22 3.22 0 0 1 2.44 3.23 4.43 4.43 0 0 1-1.16 3 5 5 0 0 1-3.88 1.3zm4.84-3.27h2.21a1.85 1.85 0 0 0 1.42-.44 1.38 1.38 0 0 0 .39-.94 1.27 1.27 0 0 0-.43-1 1.82 1.82 0 0 0-1.27-.39h-1.86zm1-5.88h1.69c1.36 0 2-.45 2-1.35s-.53-1.18-1.61-1.18h-1.69z"/><path class="cls-6" d="M199.92 40.01h-61.64l4.67-14.87h61.64l-4.67 14.87zM85.28 60.48H23.64l4.67-14.86h61.64l-4.67 14.86zm109.87 40.35H21.86l6.03-13.5h173.29l-6.03 13.5z"/><path d="M32.66 95.2l1.66-.2a1.23 1.23 0 0 0 .19.62.7.7 0 0 0 .61.24c.59 0 .89-.27.89-.81 0-.24-.06-.4-.19-.47a.79.79 0 0 0-.45-.11H35l.18-1.09h.32a.61.61 0 0 0 .51-.21.79.79 0 0 0 .17-.51c0-.39-.24-.58-.73-.58a1.06 1.06 0 0 0-.58.15 1.08 1.08 0 0 0-.38.65l-1.4-.25a2.32 2.32 0 0 1 2.59-1.9 2.83 2.83 0 0 1 1.74.45 1.42 1.42 0 0 1 .58 1.2 1.49 1.49 0 0 1-1.13 1.41 1.31 1.31 0 0 1 1 1.29 2 2 0 0 1-.7 1.56 3 3 0 0 1-2.11.62 2.69 2.69 0 0 1-1.83-.49 2.12 2.12 0 0 1-.57-1.57zm15.89-4.29l-1 6.2h-1.78l.56-3.31c.05-.34.13-.69.22-1.06s.12-.53.15-.68c0 .09-.09.23-.16.42-.15.4-.29.74-.41 1l-1.61 3.61h-1.11L43 93.5c0-.32-.07-.66-.08-1a4.81 4.81 0 0 0 0-.5c-.08.86-.18 1.6-.28 2.22l-.48 2.91h-1.47l1-6.2h2.49l.33 2.74c0 .22.06.38.08.48a3.73 3.73 0 0 1 .18-.48L46 90.91zm4.85 4.77l-.24 1.43h-4.57l1-6.2h4.46l-.23 1.35H51.2l-.16 1h2.23l-.22 1.34h-2.24l-.18 1.1zm3.91-3.36l-.8 4.8H54.7l.81-4.8h-1.33l.24-1.42h4.49l-.23 1.42zm4.09 3.52h-1.66l-.58 1.27h-1.54l2.87-6.2h1.95l1 6.2h-1.87zm-.11-1.28l-.29-1.8-.82 1.8zm2.3 2.55l2.78-6.2h1.8l1.21 6.2h-1.89l-.69-4c0 .12-.24.6-.59 1.42l-1.11 2.58z"/><path d="M71.29 95.2l-1.74-4.29h2l.76 2.46 1.34-2.46h1.72l-2.47 4.35a6 6 0 0 1-.83 1.24 3.15 3.15 0 0 1-.69.42 3 3 0 0 1-1.19.19h-.9l.22-1.36h.59a2.33 2.33 0 0 0 .7-.09 1 1 0 0 0 .49-.46zm5.52 1.91l1-6.2h2.56a4.55 4.55 0 0 1 1.15.12 1.48 1.48 0 0 1 .69 2.38 1.82 1.82 0 0 1-1 .54 1.33 1.33 0 0 1 1 1.34 1.85 1.85 0 0 1-.49 1.27 2.08 2.08 0 0 1-1.63.55zm2-1.37h.93a.78.78 0 0 0 .59-.19.57.57 0 0 0 .17-.39.55.55 0 0 0-.18-.43.83.83 0 0 0-.54-.16H79zm.41-2.47H80c.57 0 .85-.18.85-.56s-.22-.5-.67-.5h-.71zM89 94.61h-1.66l-.42 2.5h-1.8l1-6.2H88l-.38 2.28h1.6l.39-2.28h1.8l-1 6.2h-1.8zm5.71 1.23h-1.66l-.58 1.27h-1.54l2.87-6.2h2l1 6.2h-1.92zm-.11-1.28l-.25-1.8-.82 1.8zm5.75-2.24l-.81 4.8h-1.8l.81-4.8h-1.33l.24-1.42H102l-.23 1.42z"/><path d="M103.65 95.2l-1.75-4.29h2l.77 2.46 1.33-2.46h1.71l-2.42 4.35a5.52 5.52 0 0 1-.84 1.24 2.56 2.56 0 0 1-1.87.61h-.91l.23-1.36h.59a2.38 2.38 0 0 0 .7-.09 1 1 0 0 0 .46-.46zm5.35-.37l-.38 2.28h-1.81l1-6.2h2.05a6.52 6.52 0 0 1 1 .06 1.89 1.89 0 0 1 .68.29 1.7 1.7 0 0 1 .56.63 1.74 1.74 0 0 1 .21.84 2 2 0 0 1-2.2 2.1zm.22-1.33h.43c.65 0 1-.22 1-.66s-.28-.59-.82-.59h-.38zm6.12 2.34h-1.66l-.58 1.27h-1.54l2.87-6.2h1.95l1 6.2h-1.83zm-.11-1.28l-.25-1.8-.82 1.8zm2.3 2.55l2.78-6.2h1.8l1.21 6.2h-1.89l-.69-4c0 .12-.24.6-.59 1.42L119 97.11zm5.93 0l1-6.2h1.76l-.37 2.19h.89a3.78 3.78 0 0 1 1.36.19 1.3 1.3 0 0 1 .66.58 1.91 1.91 0 0 1 .22.95 2.4 2.4 0 0 1-.57 1.61 2.66 2.66 0 0 1-2.09.68zm2-1.36h.9c.54 0 .8-.26.8-.77s-.23-.58-.69-.58h-.79zm7.69-1.14h-1.61l-.41 2.5h-1.8l1-6.2h1.8l-.38 2.28h1.61l.38-2.28h1.8l-1 6.2h-1.8zm4.24.59l-1.74-4.29h1.95l.77 2.46 1.34-2.46h1.72L139 95.26a5.52 5.52 0 0 1-.84 1.24 2.84 2.84 0 0 1-.68.42 3 3 0 0 1-1.19.19h-.91l.23-1.36h.59a2.33 2.33 0 0 0 .7-.09 1 1 0 0 0 .49-.46zm5.52 1.91l1-6.2h2.56a4.55 4.55 0 0 1 1.15.12 1.39 1.39 0 0 1 .74.51 1.45 1.45 0 0 1 .31.91 1.38 1.38 0 0 1-.36 1 1.82 1.82 0 0 1-1 .54 1.33 1.33 0 0 1 1 1.34 1.85 1.85 0 0 1-.49 1.27 2.08 2.08 0 0 1-1.63.55zm2-1.37h.92a.8.8 0 0 0 .6-.19.56.56 0 0 0 .16-.39.55.55 0 0 0-.18-.43.78.78 0 0 0-.53-.16h-.78zm.41-2.47h.71c.57 0 .85-.18.85-.56s-.22-.5-.67-.5h-.71zm8.38 2.41l-.24 1.43h-4.57l1-6.2h4.46l-.23 1.35h-2.62l-.16 1h2.23l-.23 1.34h-2.23l-.18 1.1zm-.15 1.43l2.79-6.2h1.8l1.21 6.2h-1.9l-.68-4c0 .12-.24.6-.59 1.42l-1.11 2.59zm7.78-.55l-.09.55h-1.76l1-6.2h1.76l-.41 2.41c-.06.37-.16.84-.3 1.4.36-.59.7-1.1 1-1.52l1.28-1.71.1-.58h1.76l-1 6.2h-1.76l.4-2.38c.07-.4.17-.88.3-1.42a17.63 17.63 0 0 1-1 1.56zm7.67.55l.38-2.25a2.66 2.66 0 0 1-1.49.48 1.93 1.93 0 0 1-1.17-.33 1.21 1.21 0 0 1-.46-1.06 7.17 7.17 0 0 1 .11-.93l.35-2.11h1.8l-.39 2.09a4.93 4.93 0 0 0-.06.57c0 .24.18.36.56.36a2.55 2.55 0 0 0 .9-.17l.48-2.87h1.8l-1 6.2zm4.7-.55l-.09.55h-1.76l1-6.2h1.76l-.41 2.41c-.06.37-.16.84-.31 1.4.37-.59.71-1.1 1-1.52l1.28-1.71.1-.58h1.76l-1.03 6.2h-1.75l.4-2.38c.06-.4.17-.88.3-1.42a17.63 17.63 0 0 1-1 1.56zm8.3-1.95h-1.61l-.41 2.5h-1.8l1-6.2H181l-.38 2.28h1.61l.38-2.28h1.81l-1 6.2h-1.8zm4.19.59l-1.74-4.29h2l.77 2.46 1.34-2.46h1.72l-2.43 4.35a5.52 5.52 0 0 1-.85 1.24 2.84 2.84 0 0 1-.68.42 3 3 0 0 1-1.19.19h-.91l.23-1.36h.55a2.33 2.33 0 0 0 .7-.09 1 1 0 0 0 .49-.46z"/><path class="cls-6" d="M25.33 40l2.47-14.8h6.12a10.31 10.31 0 0 1 2.73.3 3.48 3.48 0 0 1 2.5 3.38 3.31 3.31 0 0 1-.85 2.3 4.25 4.25 0 0 1-2.3 1.28 3.22 3.22 0 0 1 2.44 3.22 4.36 4.36 0 0 1-1.17 3A5 5 0 0 1 33.4 40zm4.83-3.28h2.22a1.87 1.87 0 0 0 1.42-.43 1.4 1.4 0 0 0 .39-.95 1.31 1.31 0 0 0-.43-1 1.85 1.85 0 0 0-1.28-.34h-1.85zm1-5.88h1.7c1.35 0 2-.45 2-1.34s-.54-1.18-1.61-1.18h-1.68zM44 38.69L43.79 40H39.6l2.47-14.8h4.2L45.3 31c-.15.88-.39 2-.73 3.33q1.32-2.11 2.43-3.62l3-4.08.24-1.4h4.2L52 40h-4.2l1-5.68c.15-1 .4-2.09.73-3.39Q48.1 33.25 47 34.67zm19.87-4.41l4 .51a8.48 8.48 0 0 1-2.38 4 6.09 6.09 0 0 1-4.26 1.55 5.57 5.57 0 0 1-4.43-1.89 7.17 7.17 0 0 1-1.64-4.87 9.63 9.63 0 0 1 2-6.06 6.64 6.64 0 0 1 5.57-2.64 5.51 5.51 0 0 1 5.81 5.77l-4.17.3a4.25 4.25 0 0 0-.43-2 1.44 1.44 0 0 0-1.35-.67c-1.1 0-1.85.81-2.25 2.44a17.06 17.06 0 0 0-.6 3.84c0 1.51.59 2.27 1.78 2.27a1.86 1.86 0 0 0 1.42-.58 4.9 4.9 0 0 0 .93-1.97zm12.84-5.69L74.79 40h-4.3l1.92-11.44h-3.16l.57-3.41h10.72L80 28.59zM86.47 37h-4l-1.38 3h-3.63l6.85-14.8H89L91.25 40h-4.37zm-.26-3.06l-.59-4.28-2 4.28zM92.47 40l2.47-14.8h6.11a10.34 10.34 0 0 1 2.74.3 3.48 3.48 0 0 1 2.5 3.38 3.27 3.27 0 0 1-.86 2.3 4.22 4.22 0 0 1-2.29 1.28 3.22 3.22 0 0 1 2.44 3.22 4.36 4.36 0 0 1-1.17 3 5 5 0 0 1-3.88 1.32zm4.83-3.28h2.21a1.85 1.85 0 0 0 1.42-.43 1.37 1.37 0 0 0 .4-.95 1.31 1.31 0 0 0-.43-1 1.85 1.85 0 0 0-1.28-.34h-1.86zm1-5.88h1.7c1.35 0 2-.45 2-1.34s-.54-1.18-1.61-1.18H98.7zm18.62-.03l2.83 9.2h-4.37l-1.67-6.12-2.25 2.51-.6 3.61h-4.12l2.47-14.81h4.12L112.2 32a6.35 6.35 0 0 1 1.07-1.67c.47-.55 1.23-1.47 2.29-2.75l2.11-2.38h4.23zM128.84 37h-4l-1.39 3h-3.66l6.85-14.81h4.64L133.62 40h-4.37zm-.27-3.06l-.57-4.3-2 4.28z"/><path class="cls-7" d="M106.67 58l-.51 3a5.9 5.9 0 0 1-1.42.2 4.4 4.4 0 0 1-3.13-1.32 6.1 6.1 0 0 1-4 1.36 6.41 6.41 0 0 1-4.1-1.24 4 4 0 0 1-1.6-3.29 4.74 4.74 0 0 1 .73-2.46A6.56 6.56 0 0 1 96 52.1a5 5 0 0 1-1-2.64 3.47 3.47 0 0 1 1.22-2.76 4.87 4.87 0 0 1 3.28-1.05 5 5 0 0 1 3.27 1 3.13 3.13 0 0 1 1.26 2.54q0 2.46-3.12 3.89l1.45 2a7.31 7.31 0 0 0 1.19-1.83q.33-.65.48-.9l3.42.71a12 12 0 0 1-1.22 2.25 7.94 7.94 0 0 1-1.91 2.17 1.63 1.63 0 0 0 1.33.55zm-9-3.47a1.77 1.77 0 0 0-1.31 1.76 1.67 1.67 0 0 0 .49 1.26 1.86 1.86 0 0 0 1.35.48 2.49 2.49 0 0 0 1.56-.54zm1.71-3.67c1-.32 1.42-.83 1.42-1.54a1.08 1.08 0 0 0-.29-.75 1 1 0 0 0-.74-.31 1.16 1.16 0 0 0-.75.26 1 1 0 0 0-.31.79 2.38 2.38 0 0 0 .7 1.57zm19.31 4.58l-.91 5.43h-4.3l2.52-14.8h4.9a14.78 14.78 0 0 1 2.5.15 4.47 4.47 0 0 1 1.63.7 4.05 4.05 0 0 1 1.34 1.5 4.33 4.33 0 0 1 .49 2 4.84 4.84 0 0 1-5.23 5zm.53-3.17h1c1.55 0 2.33-.52 2.33-1.57s-.65-1.42-2-1.42h-.9zm14.56 8.98a6.58 6.58 0 0 1-4.55-1.72 6.22 6.22 0 0 1-1.93-4.92 9.56 9.56 0 0 1 2.16-6.32 7 7 0 0 1 5.63-2.6 6.15 6.15 0 0 1 4.58 1.82 6.48 6.48 0 0 1 1.79 4.75 9.79 9.79 0 0 1-2.12 6.37 6.81 6.81 0 0 1-5.56 2.62zm0-3.45a1.92 1.92 0 0 0 1.75-1 8.37 8.37 0 0 0 .97-2.8 16.23 16.23 0 0 0 .35-2.54 2.49 2.49 0 0 0-.52-1.72 1.81 1.81 0 0 0-1.4-.59c-1.1 0-1.88.77-2.33 2.31a14.76 14.76 0 0 0-.67 4.09c0 1.5.63 2.25 1.88 2.25zm8.22 3.07l2.48-14.8h10.67l-.51 3h-6.48l-.46 2.77h2a10.55 10.55 0 0 1 3 .35 3.51 3.51 0 0 1 1.85 1.25 3.65 3.65 0 0 1 .7 2.29 5.78 5.78 0 0 1-.7 2.73 3.77 3.77 0 0 1-2.22 1.85 9 9 0 0 1-2.94.52zm4.73-3.23h2.31a1.65 1.65 0 0 0 1.3-.45 1.53 1.53 0 0 0 .41-1c0-.86-.67-1.28-2-1.28h-1.56zm16.54 3.61a6.63 6.63 0 0 1-4.56-1.72 6.25 6.25 0 0 1-1.93-4.92 9.56 9.56 0 0 1 2.16-6.32 7 7 0 0 1 5.64-2.6 6.17 6.17 0 0 1 4.58 1.82 6.48 6.48 0 0 1 1.84 4.75 9.74 9.74 0 0 1-2.13 6.37 6.81 6.81 0 0 1-5.6 2.62zm0-3.45a1.92 1.92 0 0 0 1.75-1A8.6 8.6 0 0 0 166 54a17.6 17.6 0 0 0 .35-2.54 2.49 2.49 0 0 0-.53-1.72 1.78 1.78 0 0 0-1.39-.59c-1.11 0-1.89.77-2.33 2.31a14.81 14.81 0 0 0-.68 4.09c-.01 1.5.58 2.25 1.88 2.25zm16.06-8.35l-1.92 11.45h-4.29L175 49.45h-3.16l.57-3.4h10.72l-.56 3.4zm9.33-3.38l-2.47 14.8H182l2.48-14.8zm.09 14.8l2.47-14.8h6.12a10.25 10.25 0 0 1 2.73.3 3.43 3.43 0 0 1 1.79 1.22 3.39 3.39 0 0 1 .72 2.16 3.32 3.32 0 0 1-.86 2.3 4.31 4.31 0 0 1-2.3 1.28 3.21 3.21 0 0 1 2.44 3.22 4.41 4.41 0 0 1-1.16 3 5 5 0 0 1-3.88 1.3zm4.84-3.27h2.21a1.89 1.89 0 0 0 1.42-.43 1.4 1.4 0 0 0 .39-1 1.27 1.27 0 0 0-.43-1 1.82 1.82 0 0 0-1.27-.39h-1.86zm1-5.88h1.69c1.36 0 2-.45 2-1.34s-.54-1.19-1.61-1.19H195zM33.41 70.32l-1.92 11.44h-4.3l1.92-11.44H26l.57-3.4h10.67l-.56 3.4zm7.85 5.99l-.91 5.43h-4.3l2.48-14.8h4.89a14.92 14.92 0 0 1 2.51.15 4.33 4.33 0 0 1 1.62.7 4 4 0 0 1 1.34 1.5 4.21 4.21 0 0 1 .49 2 4.84 4.84 0 0 1-5.23 5zm.54-3.17h1c1.55 0 2.33-.52 2.33-1.58s-.65-1.41-1.95-1.41h-.9zm14.52 5.58h-4l-1.38 3h-3.63l6.85-14.8h4.64l2.3 14.8h-4.37zm-.26-3.06l-.59-4.29-1.95 4.29zm15.39.13h-3.84l-1 5.95h-4.3l2.47-14.8h4.3l-.91 5.44H72l.91-5.44h4.3l-2.47 14.8h-4.3zm15.17.21l4 .51a8.45 8.45 0 0 1-2.38 4A6.07 6.07 0 0 1 84 82.06a5.55 5.55 0 0 1-4.43-1.9 7.16 7.16 0 0 1-1.64-4.86 9.66 9.66 0 0 1 2-6.07 6.64 6.64 0 0 1 5.57-2.64 5.52 5.52 0 0 1 5.81 5.77l-4.17.31a4.32 4.32 0 0 0-.42-2 1.46 1.46 0 0 0-1.38-.67c-1.1 0-1.85.82-2.25 2.44a17.22 17.22 0 0 0-.6 3.84c0 1.52.59 2.28 1.78 2.28a1.82 1.82 0 0 0 1.42-.59 4.85 4.85 0 0 0 .93-1.97zm12.66-9.51h3.6l-.31 1.88A5.59 5.59 0 0 1 106.3 70a5.12 5.12 0 0 1 1.26 3.55 6.85 6.85 0 0 1-1.7 4.53 7.24 7.24 0 0 1-5.3 2.24l-.3 1.84h-3.61L97 80.3a5.74 5.74 0 0 1-3.7-1.59 4.88 4.88 0 0 1-1.3-3.54 6.87 6.87 0 0 1 1.74-4.64A7.17 7.17 0 0 1 99 68.32zM97.45 77.4l1-6.29A3.69 3.69 0 0 0 96 75a2.47 2.47 0 0 0 1.45 2.4zm3.58.19a3.72 3.72 0 0 0 2.54-3.85 2.46 2.46 0 0 0-1.49-2.45zm14.1 4.53a6.58 6.58 0 0 1-4.55-1.72 6.24 6.24 0 0 1-1.93-4.93 9.52 9.52 0 0 1 2.15-6.31 7 7 0 0 1 5.64-2.6 6.15 6.15 0 0 1 4.56 1.82 6.48 6.48 0 0 1 1.79 4.75 9.76 9.76 0 0 1-2.13 6.37 6.79 6.79 0 0 1-5.53 2.62zm0-3.45a1.92 1.92 0 0 0 1.75-1 8.37 8.37 0 0 0 .94-2.84 17.78 17.78 0 0 0 .35-2.54 2.52 2.52 0 0 0-.53-1.73 1.77 1.77 0 0 0-1.39-.58c-1.11 0-1.88.77-2.33 2.31a14.76 14.76 0 0 0-.67 4.09c.03 1.54.66 2.29 1.91 2.29zm13.46-2.36l-.91 5.43h-4.3l2.48-14.8h4.89a14.92 14.92 0 0 1 2.51.15 4.33 4.33 0 0 1 1.62.7 4 4 0 0 1 1.34 1.5 4.21 4.21 0 0 1 .49 2 4.84 4.84 0 0 1-5.23 5zm.54-3.17h1c1.55 0 2.33-.52 2.33-1.58s-.65-1.41-1.95-1.41h-.9zm26.32-6.2L153 81.74h-4.17l1.33-7.88c.13-.81.31-1.66.53-2.54.17-.72.29-1.26.36-1.64l-.39 1c-.35 1-.67 1.76-1 2.43l-3.83 8.61h-2.67l-1-8.61c-.09-.76-.16-1.57-.19-2.43 0-.51-.06-.91-.09-1.19-.2 2-.42 3.81-.67 5.29L140 81.74h-3.35l2.47-14.8h6l.8 6.55c.06.53.12.91.17 1.14a8.85 8.85 0 0 1 .45-1.14l2.93-6.55zM167 78.34l-.57 3.4h-10.88l2.45-14.8h10.64l-.54 3.24h-6.35l-.39 2.32h5.34l-.55 3.21h-5.32l-.44 2.63zm6.48-2.03l-.91 5.43h-4.3l2.47-14.8h4.89a14.84 14.84 0 0 1 2.51.15 4.31 4.31 0 0 1 1.63.7 4 4 0 0 1 1.33 1.5 4.22 4.22 0 0 1 .5 2 4.86 4.86 0 0 1-5.24 5zm.53-3.17h1c1.56 0 2.34-.52 2.34-1.58s-.65-1.41-2-1.41h-.9zm14.25-6.2l-2.48 14.8h-4.21l2.48-14.8zm.09 14.8l2.47-14.8h6.12a10.31 10.31 0 0 1 2.73.3 3.47 3.47 0 0 1 2.51 3.38 3.32 3.32 0 0 1-.86 2.3 4.24 4.24 0 0 1-2.3 1.27 3.22 3.22 0 0 1 2.44 3.23 4.43 4.43 0 0 1-1.16 3 5 5 0 0 1-3.88 1.3zm4.84-3.27h2.21a1.85 1.85 0 0 0 1.42-.44 1.38 1.38 0 0 0 .39-.94 1.27 1.27 0 0 0-.43-1 1.82 1.82 0 0 0-1.27-.39h-1.86zm1-5.88h1.69c1.36 0 2-.45 2-1.35s-.53-1.18-1.61-1.18h-1.69z"/></svg>