<svg id="Слой_1" data-name="Слой 1" xmlns="http://www.w3.org/2000/svg" viewBox="0 0 208.58 78.63"><defs><style>.cls-1{fill:#fff;}</style></defs><polygon class="cls-1" points="132.78 46.75 71.14 46.75 75.81 31.89 137.45 31.89 132.78 46.75"/><polygon class="cls-1" points="132.78 46.75 71.14 46.75 75.81 31.89 137.45 31.89 132.78 46.75"/><path class="cls-1" d="M138.68,39.81h-.78L137.71,41h.93a.79.79,0,0,0,.59-.18.57.57,0,0,0,0-.82A.77.77,0,0,0,138.68,39.81Z"/><path class="cls-1" d="M102.61,37.49h-.38L102,38.74h.43c.65,0,1-.22,1-.66S103.15,37.49,102.61,37.49Z"/><path class="cls-1" d="M139,37.45h-.71l-.18,1.06h.71c.57,0,.85-.19.85-.56S139.46,37.45,139,37.45Z"/><path class="cls-1" d="M72.91,37.45H72.2L72,38.51h.71c.57,0,.85-.19.85-.56S73.36,37.45,72.91,37.45Z"/><polygon class="cls-1" points="86.3 39.8 87.37 39.8 87.12 38 86.3 39.8"/><path class="cls-1" d="M72.58,39.81H71.8L71.61,41h.93a.77.77,0,0,0,.59-.18.58.58,0,0,0,.17-.4.54.54,0,0,0-.18-.42A.77.77,0,0,0,72.58,39.81Z"/><path class="cls-1" d="M119.22,39.64h-.78L118.21,41h.9q.81,0,.81-.78C119.92,39.83,119.68,39.64,119.22,39.64Z"/><path class="cls-1" d="M20.67,32.57l-6,13.49H187.92l6-13.49Zm10,7.74a2,2,0,0,1-.7,1.57,3.09,3.09,0,0,1-2.11.62A2.69,2.69,0,0,1,26,42a2.16,2.16,0,0,1-.6-1.56l1.66-.18a1.26,1.26,0,0,0,.19.62.72.72,0,0,0,.61.23c.59,0,.89-.27.89-.8a.52.52,0,0,0-.19-.48.88.88,0,0,0-.45-.11h-.36L28,38.64h.32a.59.59,0,0,0,.51-.22.75.75,0,0,0,.17-.51c0-.38-.24-.57-.73-.57a1.06,1.06,0,0,0-.58.15,1,1,0,0,0-.38.64l-1.4-.24A2.33,2.33,0,0,1,28.46,36a2.83,2.83,0,0,1,1.74.45,1.45,1.45,0,0,1,.59,1.19A1.49,1.49,0,0,1,29.66,39,1.33,1.33,0,0,1,30.67,40.31Zm9.62,2H38.54L39.1,39c0-.34.13-.69.22-1.06s.12-.53.15-.69c0,.09-.09.24-.16.43-.15.39-.29.73-.41,1l-1.61,3.6H36.18l-.43-3.6c0-.32-.06-.66-.08-1a4.58,4.58,0,0,0,0-.5c-.08.86-.17,1.59-.28,2.22l-.48,2.9H33.46l1-6.2H37l.33,2.75c0,.22.06.38.08.47a3.16,3.16,0,0,1,.18-.47l1.23-2.75h2.51Zm6.34-4.84H44l-.16,1H46l-.22,1.35H43.58l-.18,1.1h2.78l-.25,1.42H41.36l1-6.2h4.46Zm2.65,4.85H47.47l.81-4.79H47l.24-1.43h4.49l-.23,1.43H50.08Zm5.06,0-.17-1.26H52.51l-.58,1.26H50.39l2.87-6.2h2l1,6.2Zm11.33-1.85a6.18,6.18,0,0,1-.83,1.25,2.8,2.8,0,0,1-.69.41,2.86,2.86,0,0,1-1.19.19h-2.7l-.69-4c0,.12-.24.59-.59,1.42l-1.11,2.58H56.36l2.79-6.2h1.79l1.16,5.94L62.28,41h.59a2,2,0,0,0,.7-.1,1,1,0,0,0,.5-.46l-1.75-4.29h2L65,38.61l1.34-2.47H68.1Zm9.41,0a1.89,1.89,0,0,1-.49,1.27,2.12,2.12,0,0,1-1.63.54H69.58l1-6.2h2.56a4.09,4.09,0,0,1,1.15.13,1.48,1.48,0,0,1,1,1.41,1.4,1.4,0,0,1-.36,1,1.81,1.81,0,0,1-1,.53A1.35,1.35,0,0,1,75.08,40.53Zm6.22,1.81.42-2.49H80.11l-.42,2.49h-1.8l1-6.2h1.8l-.38,2.28H82l.38-2.28h1.8l-1,6.2Zm6.35,0-.17-1.26H85.82l-.58,1.26H83.7l2.87-6.2h2l1,6.2Zm9.54-.6a2.72,2.72,0,0,1-.68.41,2.86,2.86,0,0,1-1.19.19h-.91L94.64,41h.59a2.07,2.07,0,0,0,.7-.1,1,1,0,0,0,.49-.46l-1.71-4.21-.22,1.34H93.12l-.81,4.79h-1.8l.81-4.79H90l.24-1.43h6.4l.77,2.47,1.34-2.47h1.72L98,40.49A5.68,5.68,0,0,1,97.19,41.74Zm4.61-1.67-.38,2.27H99.61l1-6.2h2a6.52,6.52,0,0,1,1,.06,1.76,1.76,0,0,1,.68.3,1.6,1.6,0,0,1,.56.62,1.81,1.81,0,0,1,.21.85,2,2,0,0,1-2.19,2.1Zm6.48,2.27-.17-1.26h-1.66l-.58,1.26h-1.54l2.87-6.2h2l1,6.2Zm5.92,0-.69-4c0,.12-.24.59-.59,1.42l-1.11,2.58H110.3l2.78-6.2h1.8l1.21,6.2Zm7-.67a2.64,2.64,0,0,1-2.09.67h-2.89l1-6.2H119l-.37,2.2h.89a3.57,3.57,0,0,1,1.36.19,1.32,1.32,0,0,1,.67.58,2,2,0,0,1,.21,1A2.42,2.42,0,0,1,121.21,41.67Zm4.3.67.41-2.49h-1.6l-.42,2.49h-1.8l1-6.2h1.8l-.38,2.28h1.61l.38-2.28h1.81l-1,6.2Zm6.26-1.85a5.68,5.68,0,0,1-.84,1.25,2.55,2.55,0,0,1-.68.41,2.86,2.86,0,0,1-1.19.19h-.91l.23-1.35H129a2,2,0,0,0,.7-.1.93.93,0,0,0,.49-.46l-1.74-4.29h2l.77,2.47,1.34-2.47h1.72Zm9.41,0a1.89,1.89,0,0,1-.49,1.27,2.12,2.12,0,0,1-1.63.54h-3.38l1-6.2h2.56a4.09,4.09,0,0,1,1.15.13,1.48,1.48,0,0,1,1,1.41,1.4,1.4,0,0,1-.36,1,1.81,1.81,0,0,1-1,.53A1.35,1.35,0,0,1,141.18,40.53Zm.48,1.81,1-6.2h4.46l-.23,1.36h-2.66l-.16,1h2.23l-.23,1.35h-2.23l-.18,1.1h2.77l-.24,1.42Zm8.56,0-.68-4c0,.12-.24.59-.59,1.42l-1.11,2.58h-1.52l2.79-6.2h1.8l1.21,6.2Zm7.23,0h-1.76l.4-2.37c.07-.41.17-.88.31-1.43a18.57,18.57,0,0,1-1,1.57l-1.26,1.68-.09.55h-1.76l1-6.2h1.76l-.41,2.42c-.06.37-.16.83-.3,1.39.36-.59.7-1.09,1-1.51l1.28-1.71.1-.59h1.76Zm6.09,0h-1.8l.38-2.25a2.6,2.6,0,0,1-1.49.49,1.87,1.87,0,0,1-1.17-.34,1.2,1.2,0,0,1-.46-1.06,7.27,7.27,0,0,1,.11-.92l.35-2.12h1.8l-.35,2.12a3.75,3.75,0,0,0-.07.57c0,.24.19.36.56.36a2.79,2.79,0,0,0,.9-.17l.48-2.88h1.8Zm6.28,0h-1.76l.4-2.37c.07-.41.17-.88.3-1.43a16.57,16.57,0,0,1-1,1.57l-1.26,1.68-.09.55h-1.76l1-6.2h1.76L167,38.56c-.06.37-.16.83-.3,1.39.36-.59.7-1.09,1-1.51L169,36.73l.1-.59h1.76Zm4.49,0,.41-2.49h-1.6l-.42,2.49h-1.8l1-6.2h1.8l-.38,2.28H175l.38-2.28h1.81l-1,6.2Zm6.26-1.85a6.18,6.18,0,0,1-.83,1.25,2.8,2.8,0,0,1-.69.41,2.86,2.86,0,0,1-1.19.19H177l.23-1.35h.59a2,2,0,0,0,.7-.1.93.93,0,0,0,.49-.46l-1.74-4.29h2l.76,2.47,1.34-2.47H183Z"/><polygon class="cls-1" points="106.93 39.8 108 39.8 107.75 38 106.93 39.8"/><polygon class="cls-1" points="52.99 39.8 54.06 39.8 53.81 38 52.99 39.8"/><path class="cls-1" d="M15.67,25.8,18.14,11h6.12a10.31,10.31,0,0,1,2.73.3,3.35,3.35,0,0,1,1.78,1.22,3.39,3.39,0,0,1,.72,2.16,3.31,3.31,0,0,1-.85,2.3,4.24,4.24,0,0,1-2.3,1.27,3.22,3.22,0,0,1,2.44,3.22,4.4,4.4,0,0,1-1.17,3,5,5,0,0,1-3.87,1.3Zm4.83-3.27h2.22a1.87,1.87,0,0,0,1.42-.44,1.38,1.38,0,0,0,.39-.94,1.33,1.33,0,0,0-.43-1,1.9,1.9,0,0,0-1.28-.38H21Zm1-5.88h1.7c1.35,0,2-.45,2-1.35s-.54-1.18-1.61-1.18H21.91Z"/><path class="cls-1" d="M34.35,24.48l-.22,1.32H29.94L32.41,11h4.2l-1,5.77c-.15.88-.39,2-.73,3.33q1.32-2.12,2.43-3.62l3-4.09L40.62,11h4.2L42.33,25.8H38.14l1-5.67c.16-1,.41-2.1.73-3.4a42.71,42.71,0,0,1-2.45,3.73Z"/><path class="cls-1" d="M54.21,20.08l4,.5a8.57,8.57,0,0,1-2.38,4,6.09,6.09,0,0,1-4.26,1.55,5.55,5.55,0,0,1-4.43-1.9,7.12,7.12,0,0,1-1.64-4.86,9.71,9.71,0,0,1,2-6.07,6.66,6.66,0,0,1,5.58-2.64,5.52,5.52,0,0,1,5.81,5.77l-4.17.3a4.17,4.17,0,0,0-.43-2A1.44,1.44,0,0,0,52.93,14c-1.1,0-1.85.82-2.25,2.44a17.22,17.22,0,0,0-.6,3.84q0,2.28,1.77,2.28A1.88,1.88,0,0,0,53.28,22,4.85,4.85,0,0,0,54.21,20.08Z"/><path class="cls-1" d="M67.05,14.38,65.13,25.82h-4.3l1.92-11.44H59.59l.57-3.4H70.88l-.56,3.4Z"/><path class="cls-1" d="M76.81,22.78h-4l-1.38,3H67.8L74.65,11h4.64l2.3,14.8H77.22Zm-.26-3.06L76,15.43,74,19.72Z"/><path class="cls-1" d="M82.8,25.8,85.28,11h6.11a10.34,10.34,0,0,1,2.74.3,3.48,3.48,0,0,1,2.5,3.38,3.27,3.27,0,0,1-.86,2.3,4.21,4.21,0,0,1-2.29,1.27,3.22,3.22,0,0,1,2.44,3.22,4.4,4.4,0,0,1-1.17,3,5,5,0,0,1-3.88,1.3Zm4.84-3.27h2.21a1.85,1.85,0,0,0,1.42-.44,1.39,1.39,0,0,0,.4-.94,1.33,1.33,0,0,0-.43-1A1.9,1.9,0,0,0,90,19.75H88.1Zm1-5.88h1.7c1.35,0,2-.45,2-1.35s-.54-1.18-1.61-1.18H89Z"/><path class="cls-1" d="M107.26,16.61l2.83,9.19h-4.37l-1.67-6.11-2.25,2.5-.6,3.61H97.08L99.55,11h4.12l-1.13,6.8a6.3,6.3,0,0,1,1.06-1.67c.48-.56,1.24-1.47,2.3-2.75L108,11h4.23Z"/><path class="cls-1" d="M119.18,22.78h-4l-1.38,3h-3.67L117,11h4.64L124,25.8h-4.37Zm-.27-3.06-.58-4.29-2,4.29Z"/><path class="cls-1" d="M97,43.82l-.51,3a5.49,5.49,0,0,1-1.42.21A4.4,4.4,0,0,1,92,45.72a6.12,6.12,0,0,1-4,1.35,6.4,6.4,0,0,1-4.06-1.25,4,4,0,0,1-1.6-3.29A4.73,4.73,0,0,1,83,40.08a6.63,6.63,0,0,1,3.38-2.19,5,5,0,0,1-1-2.63,3.44,3.44,0,0,1,1.22-2.76,4.88,4.88,0,0,1,3.28-1.06,5,5,0,0,1,3.27,1A3.15,3.15,0,0,1,94.42,35q0,2.47-3.12,3.89l1.45,2a7.22,7.22,0,0,0,1.19-1.82q.33-.65.48-.9l3.42.7a12.65,12.65,0,0,1-1.22,2.26,8.25,8.25,0,0,1-1.91,2.17,1.63,1.63,0,0,0,1.33.54C96.2,43.86,96.53,43.85,97,43.82Zm-9-3.48a1.79,1.79,0,0,0-1.31,1.76,1.7,1.7,0,0,0,.49,1.27,1.86,1.86,0,0,0,1.35.48,2.51,2.51,0,0,0,1.56-.54Zm1.71-3.67c.94-.31,1.42-.83,1.42-1.54a1.06,1.06,0,0,0-.29-.74,1,1,0,0,0-.74-.31,1.16,1.16,0,0,0-.75.26,1,1,0,0,0-.31.78A2.36,2.36,0,0,0,89.75,36.67Z"/><path class="cls-1" d="M109,41.24l-.91,5.43h-4.3l2.47-14.8h4.89a16.3,16.3,0,0,1,2.51.14,4.5,4.5,0,0,1,1.63.71,4,4,0,0,1,1.34,1.49,4.4,4.4,0,0,1,.49,2,4.86,4.86,0,0,1-5.24,5Zm.53-3.17h1c1.56,0,2.34-.53,2.34-1.58s-.65-1.41-2-1.41h-.9Z"/><path class="cls-1" d="M124.12,47.05a6.58,6.58,0,0,1-4.55-1.72,6.25,6.25,0,0,1-1.93-4.93,9.58,9.58,0,0,1,2.16-6.32,7,7,0,0,1,5.63-2.59A6.15,6.15,0,0,1,130,33.3a6.52,6.52,0,0,1,1.79,4.76,9.78,9.78,0,0,1-2.13,6.37A6.78,6.78,0,0,1,124.12,47.05Zm0-3.45a1.92,1.92,0,0,0,1.75-1,8.52,8.52,0,0,0,.94-2.85,17.52,17.52,0,0,0,.35-2.53,2.47,2.47,0,0,0-.53-1.73,1.77,1.77,0,0,0-1.39-.58c-1.1,0-1.88.77-2.33,2.31a14.76,14.76,0,0,0-.67,4.08C122.27,42.85,122.9,43.6,124.15,43.6Z"/><path class="cls-1" d="M132.37,46.67l2.48-14.8h10.67l-.51,3h-6.48l-.47,2.78h2a10.59,10.59,0,0,1,3,.34,3.49,3.49,0,0,1,2.55,3.54,5.81,5.81,0,0,1-.7,2.74,3.84,3.84,0,0,1-2.22,1.85,9,9,0,0,1-2.94.52Zm4.73-3.23h2.31a1.65,1.65,0,0,0,1.3-.45,1.52,1.52,0,0,0,.4-1.06c0-.85-.66-1.28-2-1.28h-1.56Z"/><path class="cls-1" d="M153.61,47.05a6.63,6.63,0,0,1-4.56-1.72,6.29,6.29,0,0,1-1.93-4.93,9.58,9.58,0,0,1,2.16-6.32,7,7,0,0,1,5.64-2.59,6.16,6.16,0,0,1,4.58,1.81,6.52,6.52,0,0,1,1.79,4.76,9.78,9.78,0,0,1-2.13,6.37A6.81,6.81,0,0,1,153.61,47.05Zm0-3.45a1.92,1.92,0,0,0,1.75-1,8.75,8.75,0,0,0,.94-2.85,17.52,17.52,0,0,0,.35-2.53,2.52,2.52,0,0,0-.53-1.73,1.77,1.77,0,0,0-1.39-.58c-1.11,0-1.89.77-2.33,2.31a14.81,14.81,0,0,0-.68,4.08C151.75,42.85,152.38,43.6,153.64,43.6Z"/><path class="cls-1" d="M169.67,35.25l-1.92,11.44h-4.3l1.92-11.44h-3.16l.57-3.4H173.5l-.56,3.4Z"/><path class="cls-1" d="M179,31.87l-2.48,14.8h-4.21l2.48-14.8Z"/><path class="cls-1" d="M179.09,46.67l2.47-14.8h6.12a10.31,10.31,0,0,1,2.73.3,3.32,3.32,0,0,1,1.79,1.22,3.38,3.38,0,0,1,.72,2.15,3.32,3.32,0,0,1-.86,2.31,4.24,4.24,0,0,1-2.3,1.27,3.21,3.21,0,0,1,2.44,3.22,4.44,4.44,0,0,1-1.16,3,5,5,0,0,1-3.88,1.3Zm4.84-3.28h2.21a1.85,1.85,0,0,0,1.42-.43A1.38,1.38,0,0,0,188,42a1.3,1.3,0,0,0-.43-1,1.87,1.87,0,0,0-1.27-.38h-1.86Zm1-5.87h1.69c1.36,0,2-.45,2-1.35S188.1,35,187,35h-1.7Z"/><path class="cls-1" d="M23.75,56.12,21.83,67.56h-4.3l1.92-11.44H16.28l.58-3.41H27.58L27,56.12Z"/><path class="cls-1" d="M31.6,62.1l-.91,5.44h-4.3l2.48-14.81h4.89a14.92,14.92,0,0,1,2.51.15,4.37,4.37,0,0,1,1.62.71,4,4,0,0,1,1.34,1.49,4.27,4.27,0,0,1,.49,2,4.83,4.83,0,0,1-5.23,5Zm.54-3.16h1c1.55,0,2.33-.53,2.33-1.58s-.65-1.42-2-1.42h-.9Z"/><path class="cls-1" d="M46.66,64.51h-4l-1.38,3H37.65L44.5,52.73h4.64l2.3,14.81H47.07Zm-.26-3.06-.59-4.28-2,4.28Z"/><path class="cls-1" d="M61.79,61.58H58l-1,6h-4.3l2.47-14.81h4.3l-.91,5.45h3.84l.91-5.45h4.3L65.1,67.54H60.8Z"/><path class="cls-1" d="M77,61.81l4,.51a8.48,8.48,0,0,1-2.38,4,6,6,0,0,1-4.26,1.55A5.57,5.57,0,0,1,69.86,66a7.16,7.16,0,0,1-1.64-4.86,9.64,9.64,0,0,1,2-6.07,6.64,6.64,0,0,1,5.57-2.64,5.51,5.51,0,0,1,5.81,5.77l-4.17.3a4.25,4.25,0,0,0-.43-2,1.43,1.43,0,0,0-1.35-.67c-1.1,0-1.85.81-2.25,2.44a17.22,17.22,0,0,0-.6,3.84c0,1.52.59,2.28,1.78,2.28A1.86,1.86,0,0,0,76,63.72,4.9,4.9,0,0,0,77,61.81Z"/><path class="cls-1" d="M89.62,52.29h3.6l-.31,1.88a5.54,5.54,0,0,1,3.73,1.66,5.12,5.12,0,0,1,1.26,3.54,6.81,6.81,0,0,1-1.7,4.53,7.24,7.24,0,0,1-5.3,2.25L90.6,68H87l.32-1.88a5.74,5.74,0,0,1-3.7-1.59A4.88,4.88,0,0,1,82.31,61a6.89,6.89,0,0,1,1.74-4.65,7.25,7.25,0,0,1,5.26-2.21ZM87.79,63.2l1-6.29a3.68,3.68,0,0,0-2.54,3.9A2.47,2.47,0,0,0,87.79,63.2Zm3.58.18a3.71,3.71,0,0,0,2.54-3.85,2.47,2.47,0,0,0-1.49-2.45Z"/><path class="cls-1" d="M105.47,67.92a6.63,6.63,0,0,1-4.55-1.72A6.26,6.26,0,0,1,99,61.27,9.56,9.56,0,0,1,101.14,55a7,7,0,0,1,5.64-2.59,6.16,6.16,0,0,1,4.58,1.81,6.5,6.5,0,0,1,1.79,4.76A9.78,9.78,0,0,1,111,65.3,6.83,6.83,0,0,1,105.47,67.92Zm0-3.45a1.94,1.94,0,0,0,1.75-1,8.52,8.52,0,0,0,.94-2.85,17.6,17.6,0,0,0,.35-2.54,2.49,2.49,0,0,0-.53-1.72,1.78,1.78,0,0,0-1.39-.59c-1.11,0-1.88.77-2.33,2.31a14.82,14.82,0,0,0-.67,4.09C103.62,63.71,104.24,64.47,105.5,64.47Z"/><path class="cls-1" d="M118.93,62.1,118,67.54h-4.3l2.47-14.81h4.9a15,15,0,0,1,2.51.15,4.37,4.37,0,0,1,1.62.71,4,4,0,0,1,1.34,1.49,4.27,4.27,0,0,1,.49,2,4.84,4.84,0,0,1-5.23,5Zm.54-3.16h1c1.55,0,2.33-.53,2.33-1.58s-.65-1.42-1.95-1.42H120Z"/><path class="cls-1" d="M145.79,52.73l-2.47,14.81h-4.17l1.33-7.89c.13-.81.31-1.65.53-2.53.17-.72.29-1.27.35-1.64l-.38,1c-.35,1-.68,1.75-1,2.43l-3.83,8.61h-2.67l-1-8.61c-.09-.76-.16-1.57-.19-2.43,0-.52-.06-.91-.09-1.19-.2,2-.42,3.81-.67,5.29l-1.16,6.94H127l2.47-14.81h5.95l.8,6.55a11.37,11.37,0,0,0,.17,1.14,8.85,8.85,0,0,1,.45-1.14l2.93-6.55Z"/><path class="cls-1" d="M157.37,64.13l-.57,3.41H145.89l2.47-14.81H159L158.45,56H152.1l-.38,2.32h5.34l-.55,3.21h-5.32l-.44,2.62Z"/><path class="cls-1" d="M163.82,62.1l-.91,5.44h-4.3l2.47-14.81H166a14.84,14.84,0,0,1,2.51.15,4.41,4.41,0,0,1,1.63.71,4,4,0,0,1,1.33,1.49,4.28,4.28,0,0,1,.5,2,5.06,5.06,0,0,1-1.36,3.55,5,5,0,0,1-3.88,1.46Zm.53-3.16h1c1.56,0,2.34-.53,2.34-1.58s-.65-1.42-2-1.42h-.9Z"/><path class="cls-1" d="M178.6,52.73l-2.48,14.81h-4.21l2.48-14.81Z"/><path class="cls-1" d="M178.69,67.54l2.47-14.81h6.12A10.31,10.31,0,0,1,190,53a3.47,3.47,0,0,1,1.79,1.22,3.43,3.43,0,0,1,.72,2.16,3.34,3.34,0,0,1-.86,2.31,4.3,4.3,0,0,1-2.3,1.27,3.21,3.21,0,0,1,2.44,3.22,4.44,4.44,0,0,1-1.16,3,5,5,0,0,1-3.88,1.3Zm4.83-3.28h2.22a1.85,1.85,0,0,0,1.42-.43,1.38,1.38,0,0,0,.39-.94,1.3,1.3,0,0,0-.43-1,1.82,1.82,0,0,0-1.27-.38H184Zm1-5.88h1.69c1.36,0,2-.44,2-1.34s-.53-1.18-1.61-1.18h-1.69Z"/></svg>